<svg width="48" height="48" viewBox="0 0 48 48" fill="none" xmlns="http://www.w3.org/2000/svg">
<path d="M20.344 24L27.414 31.072C27.7783 31.4492 27.9799 31.9544 27.9753 32.4788C27.9708 33.0032 27.7605 33.5048 27.3896 33.8756C27.0188 34.2465 26.5172 34.4568 25.9928 34.4613C25.4684 34.4659 24.9632 34.2643 24.586 33.9L16.1 25.414C15.7251 25.0389 15.5144 24.5303 15.5144 24C15.5144 23.4697 15.7251 22.9611 16.1 22.586L24.586 14.1C24.9632 13.7357 25.4684 13.5341 25.9928 13.5387C26.5172 13.5432 27.0188 13.7535 27.3896 14.1244C27.7605 14.4952 27.9708 14.9968 27.9753 15.5212C27.9799 16.0456 27.7783 16.5508 27.414 16.928L20.344 24ZM24 44C35.046 44 44 35.046 44 24C44 12.954 35.046 4 24 4C12.954 4 4 12.954 4 24C4 35.046 12.954 44 24 44Z" fill="white"/>
</svg>
